<svg width="145" height="193" viewBox="0 0 145 193" fill="none" xmlns="http://www.w3.org/2000/svg">
<path d="M32.392 170.85C32.392 168.859 32.827 167.08 33.697 165.514C34.567 163.929 35.756 162.701 37.264 161.831C38.772 160.942 40.454 160.497 42.31 160.497C44.572 160.497 46.5053 161.038 48.11 162.121C49.734 163.184 50.9133 164.692 51.648 166.645H49.27C48.69 165.272 47.8007 164.199 46.602 163.426C45.4227 162.653 43.992 162.266 42.31 162.266C40.8213 162.266 39.4777 162.614 38.279 163.31C37.0997 164.006 36.1717 165.011 35.495 166.326C34.8183 167.621 34.48 169.129 34.48 170.85C34.48 172.571 34.8183 174.079 35.495 175.374C36.1717 176.669 37.0997 177.665 38.279 178.361C39.4777 179.057 40.8213 179.405 42.31 179.405C43.992 179.405 45.4227 179.028 46.602 178.274C47.8007 177.501 48.69 176.437 49.27 175.084H51.648C50.9133 177.017 49.734 178.516 48.11 179.579C46.486 180.642 44.5527 181.174 42.31 181.174C40.454 181.174 38.772 180.739 37.264 179.869C35.756 178.98 34.567 177.752 33.697 176.186C32.827 174.62 32.392 172.841 32.392 170.85ZM65.321 181.203C63.987 181.203 62.8077 180.971 61.783 180.507C60.7777 180.043 59.985 179.395 59.405 178.564C58.825 177.733 58.5157 176.805 58.477 175.78H60.623C60.7197 176.766 61.1547 177.636 61.928 178.39C62.7014 179.125 63.8324 179.492 65.321 179.492C66.6937 179.492 67.7764 179.144 68.569 178.448C69.381 177.733 69.787 176.834 69.787 175.751C69.787 174.881 69.5647 174.185 69.12 173.663C68.6754 173.122 68.1244 172.725 67.467 172.474C66.8097 172.203 65.901 171.913 64.741 171.604C63.3877 171.237 62.3147 170.879 61.522 170.531C60.7294 170.183 60.0527 169.642 59.492 168.907C58.9314 168.172 58.651 167.177 58.651 165.92C58.651 164.876 58.9217 163.948 59.463 163.136C60.0044 162.305 60.768 161.657 61.754 161.193C62.74 160.729 63.871 160.497 65.147 160.497C67.0224 160.497 68.5304 160.961 69.671 161.889C70.831 162.798 71.498 163.977 71.672 165.427H69.468C69.3327 164.596 68.8784 163.861 68.105 163.223C67.3317 162.566 66.2877 162.237 64.973 162.237C63.755 162.237 62.74 162.566 61.928 163.223C61.116 163.861 60.71 164.741 60.71 165.862C60.71 166.713 60.9324 167.399 61.377 167.921C61.8217 168.443 62.3727 168.839 63.03 169.11C63.7067 169.381 64.6154 169.671 65.756 169.98C67.0707 170.347 68.134 170.715 68.946 171.082C69.758 171.43 70.4444 171.971 71.005 172.706C71.5657 173.441 71.846 174.427 71.846 175.664C71.846 176.611 71.5947 177.51 71.092 178.361C70.5894 179.212 69.845 179.898 68.859 180.42C67.873 180.942 66.6937 181.203 65.321 181.203ZM85.3967 181.203C84.0627 181.203 82.8834 180.971 81.8587 180.507C80.8534 180.043 80.0607 179.395 79.4807 178.564C78.9007 177.733 78.5914 176.805 78.5527 175.78H80.6987C80.7954 176.766 81.2304 177.636 82.0037 178.39C82.7771 179.125 83.9081 179.492 85.3967 179.492C86.7694 179.492 87.8521 179.144 88.6447 178.448C89.4567 177.733 89.8627 176.834 89.8627 175.751C89.8627 174.881 89.6404 174.185 89.1957 173.663C88.7511 173.122 88.2001 172.725 87.5427 172.474C86.8854 172.203 85.9767 171.913 84.8167 171.604C83.4634 171.237 82.3904 170.879 81.5977 170.531C80.8051 170.183 80.1284 169.642 79.5677 168.907C79.0071 168.172 78.7267 167.177 78.7267 165.92C78.7267 164.876 78.9974 163.948 79.5387 163.136C80.0801 162.305 80.8437 161.657 81.8297 161.193C82.8157 160.729 83.9467 160.497 85.2227 160.497C87.0981 160.497 88.6061 160.961 89.7467 161.889C90.9068 162.798 91.5738 163.977 91.7478 165.427H89.5438C89.4084 164.596 88.9541 163.861 88.1807 163.223C87.4074 162.566 86.3634 162.237 85.0487 162.237C83.8307 162.237 82.8157 162.566 82.0037 163.223C81.1917 163.861 80.7857 164.741 80.7857 165.862C80.7857 166.713 81.0081 167.399 81.4527 167.921C81.8974 168.443 82.4484 168.839 83.1057 169.11C83.7824 169.381 84.6911 169.671 85.8317 169.98C87.1464 170.347 88.2097 170.715 89.0217 171.082C89.8337 171.43 90.5201 171.971 91.0808 172.706C91.6414 173.441 91.9217 174.427 91.9217 175.664C91.9217 176.611 91.6704 177.51 91.1677 178.361C90.6651 179.212 89.9208 179.898 88.9348 180.42C87.9487 180.942 86.7694 181.203 85.3967 181.203ZM98.8025 165.514C98.9378 163.755 99.6145 162.372 100.832 161.367C102.07 160.342 103.665 159.83 105.617 159.83C106.913 159.83 108.024 160.062 108.952 160.526C109.88 160.99 110.576 161.628 111.04 162.44C111.524 163.233 111.765 164.132 111.765 165.137C111.765 166.355 111.408 167.409 110.692 168.298C109.977 169.187 108.962 169.738 107.647 169.951V170.096C109.02 170.367 110.112 170.966 110.924 171.894C111.736 172.803 112.142 174.001 112.142 175.49C112.142 177.153 111.582 178.516 110.46 179.579C109.358 180.623 107.754 181.145 105.646 181.145C103.636 181.145 101.983 180.623 100.687 179.579C99.3921 178.516 98.6478 177.017 98.4545 175.084H100.426C100.6 176.379 101.142 177.433 102.05 178.245C102.959 179.038 104.158 179.434 105.646 179.434C107.116 179.434 108.237 179.047 109.01 178.274C109.803 177.501 110.199 176.515 110.199 175.316C110.199 172.377 108.082 170.908 103.848 170.908H103.21V169.197H103.877C107.821 169.197 109.793 167.911 109.793 165.34C109.793 164.219 109.426 163.32 108.691 162.643C107.957 161.947 106.913 161.599 105.559 161.599C104.245 161.599 103.152 161.947 102.282 162.643C101.432 163.32 100.929 164.277 100.774 165.514H98.8025Z" fill="#666666"/>
<path d="M145 72.5C145 112.541 112.541 145 72.5 145C32.4594 145 0 112.541 0 72.5C0 32.4594 32.4594 0 72.5 0C112.541 0 145 32.4594 145 72.5ZM7.975 72.5C7.975 108.136 36.8638 137.025 72.5 137.025C108.136 137.025 137.025 108.136 137.025 72.5C137.025 36.8638 108.136 7.975 72.5 7.975C36.8638 7.975 7.975 36.8638 7.975 72.5Z" fill="#EEEEEE"/>
<path d="M72.5 0C87.8105 1.82576e-07 102.728 4.84698 115.114 13.8463C127.501 22.8456 136.72 35.5351 141.452 50.0963C146.183 64.6574 146.183 80.3426 141.452 94.9037C136.72 109.465 127.501 122.154 115.114 131.154C102.728 140.153 87.8105 145 72.5 145C57.1895 145 42.272 140.153 29.8856 131.154C17.4991 122.154 8.2796 109.465 3.5484 94.9037C-1.1828 80.3426 -1.1828 64.6574 3.54841 50.0963L11.1331 52.5607C6.92231 65.5201 6.9223 79.4799 11.1331 92.4393C15.3438 105.399 23.5492 116.692 34.5732 124.702C45.5971 132.711 58.8737 137.025 72.5 137.025C86.1263 137.025 99.4029 132.711 110.427 124.702C121.451 116.692 129.656 105.399 133.867 92.4393C138.078 79.4799 138.078 65.5201 133.867 52.5607C129.656 39.6013 121.451 28.3075 110.427 20.2982C99.4029 12.2888 86.1263 7.975 72.5 7.975V0Z" fill="#FFB400"/>
<path d="M44.307 70.951C42.2963 69.9457 41.291 68.3603 41.291 66.195C41.291 65.151 41.552 64.194 42.074 63.324C42.596 62.454 43.379 61.7677 44.423 61.265C45.467 60.743 46.743 60.482 48.251 60.482C49.7397 60.482 51.006 60.743 52.05 61.265C53.1133 61.7677 53.906 62.454 54.428 63.324C54.95 64.194 55.211 65.151 55.211 66.195C55.211 67.2777 54.9307 68.2347 54.37 69.066C53.8287 69.878 53.1037 70.5063 52.195 70.951C53.297 71.357 54.167 72.024 54.805 72.952C55.443 73.8607 55.762 74.9337 55.762 76.171C55.762 77.4277 55.443 78.5393 54.805 79.506C54.167 80.4727 53.2777 81.217 52.137 81.739C50.9963 82.261 49.701 82.522 48.251 82.522C46.801 82.522 45.5057 82.261 44.365 81.739C43.2437 81.217 42.364 80.4727 41.726 79.506C41.088 78.5393 40.769 77.4277 40.769 76.171C40.769 74.9143 41.088 73.8317 41.726 72.923C42.364 72.0143 43.2243 71.357 44.307 70.951ZM52.05 66.601C52.05 65.5183 51.7117 64.687 51.035 64.107C50.3583 63.527 49.4303 63.237 48.251 63.237C47.091 63.237 46.1727 63.527 45.496 64.107C44.8193 64.687 44.481 65.528 44.481 66.63C44.481 67.5967 44.829 68.3893 45.525 69.008C46.2403 69.6073 47.149 69.907 48.251 69.907C49.353 69.907 50.2617 69.5977 50.977 68.979C51.6923 68.3603 52.05 67.5677 52.05 66.601ZM48.251 72.401C46.975 72.401 45.931 72.72 45.119 73.358C44.3263 73.9767 43.93 74.8757 43.93 76.055C43.93 77.157 44.3167 78.056 45.09 78.752C45.8633 79.4287 46.917 79.767 48.251 79.767C49.5657 79.767 50.6 79.419 51.354 78.723C52.1273 78.027 52.514 77.1377 52.514 76.055C52.514 74.895 52.1177 73.996 51.325 73.358C50.5517 72.72 49.527 72.401 48.251 72.401ZM62.7132 71.154C62.7132 67.8093 63.2738 65.1993 64.3952 63.324C65.5358 61.4293 67.4885 60.482 70.2532 60.482C73.0178 60.482 74.9608 61.4293 76.0822 63.324C77.2228 65.1993 77.7932 67.8093 77.7932 71.154C77.7932 74.5373 77.2228 77.186 76.0822 79.1C74.9608 80.9947 73.0178 81.942 70.2532 81.942C67.4885 81.942 65.5358 80.9947 64.3952 79.1C63.2738 77.186 62.7132 74.5373 62.7132 71.154ZM74.5452 71.154C74.5452 69.588 74.4388 68.2637 74.2262 67.181C74.0328 66.0983 73.6268 65.2187 73.0082 64.542C72.3895 63.846 71.4712 63.498 70.2532 63.498C69.0352 63.498 68.1168 63.846 67.4982 64.542C66.8795 65.2187 66.4638 66.0983 66.2512 67.181C66.0578 68.2637 65.9612 69.588 65.9612 71.154C65.9612 72.778 66.0578 74.141 66.2512 75.243C66.4445 76.345 66.8505 77.2343 67.4692 77.911C68.1072 78.5877 69.0352 78.926 70.2532 78.926C71.4712 78.926 72.3895 78.5877 73.0082 77.911C73.6462 77.2343 74.0618 76.345 74.2552 75.243C74.4485 74.141 74.5452 72.778 74.5452 71.154ZM84.2493 65.963C84.2493 64.5517 84.6553 63.4497 85.4673 62.657C86.2986 61.845 87.362 61.439 88.6573 61.439C89.9526 61.439 91.0063 61.845 91.8183 62.657C92.6496 63.4497 93.0653 64.5517 93.0653 65.963C93.0653 67.3743 92.6496 68.486 91.8183 69.298C91.0063 70.11 89.9526 70.516 88.6573 70.516C87.362 70.516 86.2986 70.11 85.4673 69.298C84.6553 68.486 84.2493 67.3743 84.2493 65.963ZM101.939 61.816L90.3683 82H87.1203L98.6913 61.816H101.939ZM88.6573 63.44C87.4393 63.44 86.8303 64.281 86.8303 65.963C86.8303 67.6643 87.4393 68.515 88.6573 68.515C89.2373 68.515 89.682 68.312 89.9913 67.906C90.32 67.4807 90.4843 66.833 90.4843 65.963C90.4843 64.281 89.8753 63.44 88.6573 63.44ZM96.0523 77.824C96.0523 76.4127 96.4583 75.3107 97.2703 74.518C98.1016 73.706 99.165 73.3 100.46 73.3C101.736 73.3 102.78 73.706 103.592 74.518C104.424 75.3107 104.839 76.4127 104.839 77.824C104.839 79.2353 104.424 80.347 103.592 81.159C102.78 81.971 101.736 82.377 100.46 82.377C99.165 82.377 98.1016 81.971 97.2703 81.159C96.4583 80.347 96.0523 79.2353 96.0523 77.824ZM100.431 75.301C99.2133 75.301 98.6043 76.142 98.6043 77.824C98.6043 79.506 99.2133 80.347 100.431 80.347C101.649 80.347 102.258 79.506 102.258 77.824C102.258 76.142 101.649 75.301 100.431 75.301Z" fill="#666666"/>
</svg>
