<svg width="195" height="193" viewBox="0 0 195 193" fill="none" xmlns="http://www.w3.org/2000/svg">
<path d="M10.687 160.729V176.07C10.687 177.617 10.2133 178.864 9.266 179.811C8.31867 180.739 7.05233 181.203 5.467 181.203C3.82367 181.203 2.509 180.71 1.523 179.724C0.556333 178.719 0.073 177.365 0.073 175.664H2.132C2.15133 176.766 2.422 177.665 2.944 178.361C3.48533 179.057 4.32633 179.405 5.467 179.405C6.54967 179.405 7.352 179.086 7.874 178.448C8.396 177.81 8.657 177.017 8.657 176.07V160.729H10.687ZM31.0167 176.186H21.7947L20.0257 181H17.8797L25.2747 160.99H27.5657L34.9317 181H32.7857L31.0167 176.186ZM30.4077 174.504L26.4057 163.542L22.4037 174.504H30.4077ZM57.7356 160.729L50.0506 181H47.7306L40.0456 160.729H42.2496L48.8906 178.796L55.5896 160.729H57.7356ZM76.0109 176.186H66.7889L65.0199 181H62.8739L70.2689 160.99H72.5599L79.9259 181H77.7799L76.0109 176.186ZM75.4019 174.504L71.3999 163.542L67.3979 174.504H75.4019ZM92.8118 181.203C91.4778 181.203 90.2985 180.971 89.2738 180.507C88.2685 180.043 87.4758 179.395 86.8958 178.564C86.3158 177.733 86.0065 176.805 85.9678 175.78H88.1138C88.2105 176.766 88.6455 177.636 89.4188 178.39C90.1922 179.125 91.3232 179.492 92.8118 179.492C94.1845 179.492 95.2672 179.144 96.0598 178.448C96.8718 177.733 97.2778 176.834 97.2778 175.751C97.2778 174.881 97.0555 174.185 96.6108 173.663C96.1662 173.122 95.6152 172.725 94.9578 172.474C94.3005 172.203 93.3918 171.913 92.2318 171.604C90.8785 171.237 89.8055 170.879 89.0128 170.531C88.2202 170.183 87.5435 169.642 86.9828 168.907C86.4222 168.172 86.1418 167.177 86.1418 165.92C86.1418 164.876 86.4125 163.948 86.9538 163.136C87.4952 162.305 88.2588 161.657 89.2448 161.193C90.2308 160.729 91.3618 160.497 92.6378 160.497C94.5132 160.497 96.0212 160.961 97.1618 161.889C98.3218 162.798 98.9888 163.977 99.1628 165.427H96.9588C96.8235 164.596 96.3692 163.861 95.5958 163.223C94.8225 162.566 93.7785 162.237 92.4638 162.237C91.2458 162.237 90.2308 162.566 89.4188 163.223C88.6068 163.861 88.2008 164.741 88.2008 165.862C88.2008 166.713 88.4232 167.399 88.8678 167.921C89.3125 168.443 89.8635 168.839 90.5208 169.11C91.1975 169.381 92.1062 169.671 93.2468 169.98C94.5615 170.347 95.6248 170.715 96.4368 171.082C97.2488 171.43 97.9352 171.971 98.4958 172.706C99.0565 173.441 99.3368 174.427 99.3368 175.664C99.3368 176.611 99.0855 177.51 98.5828 178.361C98.0802 179.212 97.3358 179.898 96.3498 180.42C95.3638 180.942 94.1845 181.203 92.8118 181.203ZM105.812 170.85C105.812 168.859 106.247 167.08 107.117 165.514C107.987 163.929 109.176 162.701 110.684 161.831C112.192 160.942 113.874 160.497 115.73 160.497C117.992 160.497 119.925 161.038 121.53 162.121C123.154 163.184 124.333 164.692 125.068 166.645H122.69C122.11 165.272 121.22 164.199 120.022 163.426C118.842 162.653 117.412 162.266 115.73 162.266C114.241 162.266 112.897 162.614 111.699 163.31C110.519 164.006 109.591 165.011 108.915 166.326C108.238 167.621 107.9 169.129 107.9 170.85C107.9 172.571 108.238 174.079 108.915 175.374C109.591 176.669 110.519 177.665 111.699 178.361C112.897 179.057 114.241 179.405 115.73 179.405C117.412 179.405 118.842 179.028 120.022 178.274C121.22 177.501 122.11 176.437 122.69 175.084H125.068C124.333 177.017 123.154 178.516 121.53 179.579C119.906 180.642 117.972 181.174 115.73 181.174C113.874 181.174 112.192 180.739 110.684 179.869C109.176 178.98 107.987 177.752 107.117 176.186C106.247 174.62 105.812 172.841 105.812 170.85ZM143.381 181L138.364 172.532H134.623V181H132.593V160.729H138.683C140.945 160.729 142.656 161.27 143.816 162.353C144.995 163.436 145.585 164.857 145.585 166.616C145.585 168.085 145.159 169.342 144.309 170.386C143.477 171.411 142.24 172.078 140.597 172.387L145.817 181H143.381ZM134.623 170.879H138.712C140.297 170.879 141.486 170.492 142.279 169.719C143.091 168.946 143.497 167.911 143.497 166.616C143.497 165.282 143.11 164.257 142.337 163.542C141.563 162.807 140.345 162.44 138.683 162.44H134.623V170.879ZM155.123 160.729V181H153.093V160.729H155.123ZM176.163 166.558C176.163 168.298 175.593 169.7 174.452 170.763C173.311 171.826 171.6 172.358 169.319 172.358H165.23V181H163.2V160.729H169.319C171.581 160.729 173.282 161.261 174.423 162.324C175.583 163.387 176.163 164.799 176.163 166.558ZM169.319 170.618C172.49 170.618 174.075 169.265 174.075 166.558C174.075 165.205 173.698 164.18 172.944 163.484C172.19 162.788 170.982 162.44 169.319 162.44H165.23V170.618H169.319ZM194.91 160.729V162.411H189.284V181H187.254V162.411H181.599V160.729H194.91Z" fill="#666666"/>
<path d="M170 72.5C170 112.541 137.541 145 97.5 145C57.4594 145 25 112.541 25 72.5C25 32.4594 57.4594 0 97.5 0C137.541 0 170 32.4594 170 72.5ZM32.975 72.5C32.975 108.136 61.8638 137.025 97.5 137.025C133.136 137.025 162.025 108.136 162.025 72.5C162.025 36.8638 133.136 7.975 97.5 7.975C61.8638 7.975 32.975 36.8638 32.975 72.5Z" fill="#EEEEEE"/>
<path d="M97.5 0C111.839 1.70993e-07 125.856 4.25205 137.779 12.2185C149.701 20.1849 158.994 31.5078 164.481 44.7555C169.969 58.0031 171.404 72.5804 168.607 86.6441C165.81 100.708 158.905 113.626 148.765 123.765C138.626 133.905 125.708 140.81 111.644 143.607C97.5804 146.404 83.0031 144.969 69.7555 139.481C56.5078 133.994 45.1849 124.701 37.2185 112.779C29.252 100.856 25 86.8391 25 72.5H32.975C32.975 85.2618 36.7593 97.7371 43.8494 108.348C50.9395 118.959 61.0169 127.23 72.8074 132.113C84.5978 136.997 97.5716 138.275 110.088 135.785C122.605 133.295 134.102 127.15 143.126 118.126C152.15 109.102 158.295 97.6048 160.785 85.0882C163.275 72.5716 161.997 59.5978 157.113 47.8074C152.23 36.0169 143.959 25.9395 133.348 18.8494C122.737 11.7593 110.262 7.975 97.5 7.975V0Z" fill="#FFB400"/>
<path d="M79.138 63.411L71.076 82H67.741L75.89 63.759H65.16V60.946H79.138V63.411ZM99.0775 63.701H89.3625V69.472C89.7685 68.9307 90.3679 68.4763 91.1605 68.109C91.9725 67.7417 92.8329 67.558 93.7415 67.558C95.3655 67.558 96.6802 67.906 97.6855 68.602C98.7102 69.298 99.4352 70.1777 99.8605 71.241C100.305 72.3043 100.528 73.4257 100.528 74.605C100.528 76.0357 100.247 77.3117 99.6865 78.433C99.1452 79.535 98.3235 80.405 97.2215 81.043C96.1389 81.681 94.8049 82 93.2195 82C91.1122 82 89.4205 81.478 88.1445 80.434C86.8685 79.39 86.1049 78.0077 85.8535 76.287H89.0725C89.2852 77.1957 89.7589 77.9207 90.4935 78.462C91.2282 78.984 92.1465 79.245 93.2485 79.245C94.6212 79.245 95.6459 78.8293 96.3225 77.998C97.0185 77.1667 97.3665 76.0647 97.3665 74.692C97.3665 73.3 97.0185 72.2367 96.3225 71.502C95.6265 70.748 94.6019 70.371 93.2485 70.371C92.3012 70.371 91.4989 70.6127 90.8415 71.096C90.2035 71.56 89.7395 72.198 89.4495 73.01H86.3175V60.801H99.0775V63.701ZM106.927 65.963C106.927 64.5517 107.333 63.4497 108.145 62.657C108.976 61.845 110.04 61.439 111.335 61.439C112.63 61.439 113.684 61.845 114.496 62.657C115.327 63.4497 115.743 64.5517 115.743 65.963C115.743 67.3743 115.327 68.486 114.496 69.298C113.684 70.11 112.63 70.516 111.335 70.516C110.04 70.516 108.976 70.11 108.145 69.298C107.333 68.486 106.927 67.3743 106.927 65.963ZM124.617 61.816L113.046 82H109.798L121.369 61.816H124.617ZM111.335 63.44C110.117 63.44 109.508 64.281 109.508 65.963C109.508 67.6643 110.117 68.515 111.335 68.515C111.915 68.515 112.36 68.312 112.669 67.906C112.998 67.4807 113.162 66.833 113.162 65.963C113.162 64.281 112.553 63.44 111.335 63.44ZM118.73 77.824C118.73 76.4127 119.136 75.3107 119.948 74.518C120.779 73.706 121.843 73.3 123.138 73.3C124.414 73.3 125.458 73.706 126.27 74.518C127.101 75.3107 127.517 76.4127 127.517 77.824C127.517 79.2353 127.101 80.347 126.27 81.159C125.458 81.971 124.414 82.377 123.138 82.377C121.843 82.377 120.779 81.971 119.948 81.159C119.136 80.347 118.73 79.2353 118.73 77.824ZM123.109 75.301C121.891 75.301 121.282 76.142 121.282 77.824C121.282 79.506 121.891 80.347 123.109 80.347C124.327 80.347 124.936 79.506 124.936 77.824C124.936 76.142 124.327 75.301 123.109 75.301Z" fill="#666666"/>
</svg>
