<svg width="145" height="193" viewBox="0 0 145 193" fill="none" xmlns="http://www.w3.org/2000/svg">
<path d="M39.27 166.645C38.69 165.311 37.8007 164.267 36.602 163.513C35.4227 162.74 34.0307 162.353 32.426 162.353C30.918 162.353 29.5647 162.701 28.366 163.397C27.1673 164.093 26.22 165.089 25.524 166.384C24.828 167.66 24.48 169.149 24.48 170.85C24.48 172.551 24.828 174.05 25.524 175.345C26.22 176.64 27.1673 177.636 28.366 178.332C29.5647 179.028 30.918 179.376 32.426 179.376C33.8373 179.376 35.1037 179.076 36.225 178.477C37.3657 177.858 38.2743 176.988 38.951 175.867C39.647 174.726 40.0433 173.402 40.14 171.894H31.614V170.241H42.286V171.72C42.1893 173.499 41.706 175.113 40.836 176.563C39.966 177.994 38.7963 179.125 37.327 179.956C35.877 180.787 34.2433 181.203 32.426 181.203C30.5507 181.203 28.8493 180.768 27.322 179.898C25.7947 179.009 24.5863 177.781 23.697 176.215C22.827 174.63 22.392 172.841 22.392 170.85C22.392 168.859 22.827 167.08 23.697 165.514C24.5863 163.929 25.7947 162.701 27.322 161.831C28.8493 160.942 30.5507 160.497 32.426 160.497C34.5913 160.497 36.486 161.038 38.11 162.121C39.734 163.204 40.9133 164.712 41.648 166.645H39.27ZM51.5146 160.729V181H49.4846V160.729H51.5146ZM71.4525 160.729V162.411H65.8265V181H63.7965V162.411H58.1415V160.729H71.4525ZM93.1889 160.729V181H91.1589V171.517H80.1679V181H78.1379V160.729H80.1679V169.835H91.1589V160.729H93.1889ZM103.244 160.729V173.489C103.244 175.5 103.717 176.988 104.665 177.955C105.631 178.922 106.946 179.405 108.609 179.405C110.271 179.405 111.567 178.931 112.495 177.984C113.442 177.017 113.916 175.519 113.916 173.489V160.729H115.946V173.46C115.946 176.031 115.259 177.965 113.887 179.26C112.533 180.555 110.764 181.203 108.58 181.203C106.395 181.203 104.616 180.555 103.244 179.26C101.89 177.965 101.214 176.031 101.214 173.46V160.729H103.244ZM133.436 170.531C134.577 170.744 135.544 171.324 136.336 172.271C137.129 173.218 137.525 174.32 137.525 175.577C137.525 176.602 137.264 177.53 136.742 178.361C136.24 179.173 135.495 179.821 134.509 180.304C133.523 180.768 132.344 181 130.971 181H123.953V160.729H130.768C132.818 160.729 134.374 161.203 135.437 162.15C136.52 163.097 137.061 164.325 137.061 165.833C137.061 167.09 136.723 168.114 136.046 168.907C135.37 169.68 134.5 170.222 133.436 170.531ZM125.983 169.69H130.71C132.083 169.69 133.137 169.371 133.871 168.733C134.625 168.076 135.002 167.177 135.002 166.036C135.002 164.915 134.625 164.035 133.871 163.397C133.137 162.759 132.054 162.44 130.623 162.44H125.983V169.69ZM130.826 179.289C132.296 179.289 133.436 178.941 134.248 178.245C135.08 177.549 135.495 176.592 135.495 175.374C135.495 174.156 135.06 173.189 134.19 172.474C133.34 171.739 132.189 171.372 130.739 171.372H125.983V179.289H130.826Z" fill="#666666"/>
<path d="M145 72.5C145 112.541 112.541 145 72.5 145C32.4594 145 0 112.541 0 72.5C0 32.4594 32.4594 0 72.5 0C112.541 0 145 32.4594 145 72.5ZM7.975 72.5C7.975 108.136 36.8638 137.025 72.5 137.025C108.136 137.025 137.025 108.136 137.025 72.5C137.025 36.8638 108.136 7.975 72.5 7.975C36.8638 7.975 7.975 36.8638 7.975 72.5Z" fill="#EEEEEE"/>
<path d="M72.5 0C91.1369 2.22243e-07 109.058 7.17702 122.543 20.0412C136.028 32.9054 144.042 50.4685 144.92 69.0848C145.797 87.701 139.473 105.94 127.258 120.017C115.043 134.093 97.8771 142.924 79.3228 144.678C60.7686 146.432 42.2516 140.973 27.6157 129.435C12.9798 117.897 3.34924 101.166 0.72328 82.7153C-1.90268 64.2643 2.67764 45.5107 13.5134 30.3475C24.3492 15.1843 40.6081 4.77637 58.9149 1.28417L60.4093 9.11791C44.1162 12.226 29.6458 21.4891 20.0019 34.9843C10.3581 48.4795 6.28161 65.1702 8.61872 81.5916C10.9558 98.013 19.527 112.904 32.5529 123.173C45.5789 133.441 62.0591 138.3 78.5723 136.739C95.0856 135.178 110.364 127.317 121.235 114.79C132.106 102.262 137.735 86.0289 136.953 69.4605C136.172 52.892 129.04 37.2608 117.038 25.8117C105.037 14.3625 89.0869 7.975 72.5 7.975V0Z" fill="#FFB400"/>
<path d="M44.858 76.258C45.0513 77.2247 45.467 77.9593 46.105 78.462C46.743 78.9647 47.6033 79.216 48.686 79.216C50.0587 79.216 51.064 78.6747 51.702 77.592C52.34 76.5093 52.659 74.663 52.659 72.053C52.195 72.7103 51.5377 73.2227 50.687 73.59C49.8557 73.938 48.947 74.112 47.961 74.112C46.7043 74.112 45.5637 73.8607 44.539 73.358C43.5143 72.836 42.7023 72.0723 42.103 71.067C41.523 70.0423 41.233 68.805 41.233 67.355C41.233 65.2283 41.8517 63.5367 43.089 62.28C44.3457 61.004 46.0663 60.366 48.251 60.366C50.8803 60.366 52.746 61.2457 53.848 63.005C54.9693 64.745 55.53 67.4227 55.53 71.038C55.53 73.532 55.3173 75.5717 54.892 77.157C54.486 78.7423 53.7707 79.941 52.746 80.753C51.7213 81.565 50.3003 81.971 48.483 81.971C46.4143 81.971 44.8193 81.4297 43.698 80.347C42.5767 79.2643 41.9483 77.9013 41.813 76.258H44.858ZM48.541 71.328C49.701 71.328 50.6097 70.9703 51.267 70.255C51.9437 69.5203 52.282 68.5537 52.282 67.355C52.282 66.021 51.9243 64.9867 51.209 64.252C50.513 63.498 49.556 63.121 48.338 63.121C47.12 63.121 46.1533 63.5077 45.438 64.281C44.742 65.035 44.394 66.0307 44.394 67.268C44.394 68.4473 44.7323 69.4237 45.409 70.197C46.105 70.951 47.149 71.328 48.541 71.328ZM76.0262 63.411L67.9642 82H64.6292L72.7782 63.759H62.0482V60.946H76.0262V63.411ZM81.8137 65.963C81.8137 64.5517 82.2197 63.4497 83.0317 62.657C83.8631 61.845 84.9264 61.439 86.2217 61.439C87.5171 61.439 88.5707 61.845 89.3827 62.657C90.2141 63.4497 90.6297 64.5517 90.6297 65.963C90.6297 67.3743 90.2141 68.486 89.3827 69.298C88.5707 70.11 87.5171 70.516 86.2217 70.516C84.9264 70.516 83.8631 70.11 83.0317 69.298C82.2197 68.486 81.8137 67.3743 81.8137 65.963ZM99.5037 61.816L87.9327 82H84.6847L96.2557 61.816H99.5037ZM86.2217 63.44C85.0037 63.44 84.3947 64.281 84.3947 65.963C84.3947 67.6643 85.0037 68.515 86.2217 68.515C86.8017 68.515 87.2464 68.312 87.5557 67.906C87.8844 67.4807 88.0487 66.833 88.0487 65.963C88.0487 64.281 87.4397 63.44 86.2217 63.44ZM93.6167 77.824C93.6167 76.4127 94.0227 75.3107 94.8347 74.518C95.6661 73.706 96.7294 73.3 98.0247 73.3C99.3007 73.3 100.345 73.706 101.157 74.518C101.988 75.3107 102.404 76.4127 102.404 77.824C102.404 79.2353 101.988 80.347 101.157 81.159C100.345 81.971 99.3007 82.377 98.0247 82.377C96.7294 82.377 95.6661 81.971 94.8347 81.159C94.0227 80.347 93.6167 79.2353 93.6167 77.824ZM97.9957 75.301C96.7777 75.301 96.1687 76.142 96.1687 77.824C96.1687 79.506 96.7777 80.347 97.9957 80.347C99.2137 80.347 99.8227 79.506 99.8227 77.824C99.8227 76.142 99.2137 75.301 97.9957 75.301Z" fill="#666666"/>
</svg>
