<svg width="145" height="193" viewBox="0 0 145 193" fill="none" xmlns="http://www.w3.org/2000/svg">
<path d="M32.263 160.729V173.489C32.263 175.5 32.7367 176.988 33.684 177.955C34.6507 178.922 35.9653 179.405 37.628 179.405C39.2907 179.405 40.586 178.931 41.514 177.984C42.4613 177.017 42.935 175.519 42.935 173.489V160.729H44.965V173.46C44.965 176.031 44.2787 177.965 42.906 179.26C41.5527 180.555 39.7837 181.203 37.599 181.203C35.4143 181.203 33.6357 180.555 32.263 179.26C30.9097 177.965 30.233 176.031 30.233 173.46V160.729H32.263ZM60.2809 170.879L66.4289 181H64.1669L59.0049 172.532L54.1039 181H51.8419L57.9609 170.792L51.8419 160.729H54.1039L59.2369 169.168L64.1959 160.729H66.4579L60.2809 170.879ZM82.4357 153.74L74.4317 185.814H72.4307L80.3767 153.74H82.4357ZM91.6405 160.729V173.489C91.6405 175.5 92.1142 176.988 93.0615 177.955C94.0282 178.922 95.3428 179.405 97.0055 179.405C98.6682 179.405 99.9635 178.931 100.891 177.984C101.839 177.017 102.312 175.519 102.312 173.489V160.729H104.342V173.46C104.342 176.031 103.656 177.965 102.283 179.26C100.93 180.555 99.1612 181.203 96.9765 181.203C94.7918 181.203 93.0132 180.555 91.6405 179.26C90.2872 177.965 89.6105 176.031 89.6105 173.46V160.729H91.6405ZM114.38 160.729V181H112.35V160.729H114.38Z" fill="#666666"/>
<path d="M145 72.5C145 112.541 112.541 145 72.5 145C32.4594 145 0 112.541 0 72.5C0 32.4594 32.4594 0 72.5 0C112.541 0 145 32.4594 145 72.5ZM7.975 72.5C7.975 108.136 36.8638 137.025 72.5 137.025C108.136 137.025 137.025 108.136 137.025 72.5C137.025 36.8638 108.136 7.975 72.5 7.975C36.8638 7.975 7.975 36.8638 7.975 72.5Z" fill="#EEEEEE"/>
<path d="M72.5 0C89.7625 2.05853e-07 106.458 6.15948 119.585 17.3705C132.711 28.5816 141.407 44.1085 144.107 61.1584C146.808 78.2084 143.336 95.6624 134.316 110.381C125.297 125.1 111.321 136.117 94.9039 141.452C78.4863 146.786 60.7041 146.087 44.7556 139.481C28.8072 132.875 15.7392 120.795 7.90213 105.415C0.0650902 90.0336 -2.02666 72.361 2.00312 55.5755C6.03289 38.79 15.9197 23.9931 29.8853 13.8465L34.5729 20.2983C22.1436 29.3289 13.3443 42.4981 9.75777 57.4372C6.17127 72.3763 8.03293 88.1049 15.0079 101.794C21.9829 115.483 33.6134 126.234 47.8075 132.113C62.0016 137.993 77.8278 138.615 92.4395 133.867C107.051 129.119 119.489 119.314 127.517 106.214C135.544 93.1145 138.634 77.5804 136.231 62.406C133.827 47.2316 126.088 33.4126 114.406 23.4348C102.723 13.4569 87.8636 7.975 72.5 7.975V0Z" fill="#FFB400"/>
<path d="M44.858 76.258C45.0513 77.2247 45.467 77.9593 46.105 78.462C46.743 78.9647 47.6033 79.216 48.686 79.216C50.0587 79.216 51.064 78.6747 51.702 77.592C52.34 76.5093 52.659 74.663 52.659 72.053C52.195 72.7103 51.5377 73.2227 50.687 73.59C49.8557 73.938 48.947 74.112 47.961 74.112C46.7043 74.112 45.5637 73.8607 44.539 73.358C43.5143 72.836 42.7023 72.0723 42.103 71.067C41.523 70.0423 41.233 68.805 41.233 67.355C41.233 65.2283 41.8517 63.5367 43.089 62.28C44.3457 61.004 46.0663 60.366 48.251 60.366C50.8803 60.366 52.746 61.2457 53.848 63.005C54.9693 64.745 55.53 67.4227 55.53 71.038C55.53 73.532 55.3173 75.5717 54.892 77.157C54.486 78.7423 53.7707 79.941 52.746 80.753C51.7213 81.565 50.3003 81.971 48.483 81.971C46.4143 81.971 44.8193 81.4297 43.698 80.347C42.5767 79.2643 41.9483 77.9013 41.813 76.258H44.858ZM48.541 71.328C49.701 71.328 50.6097 70.9703 51.267 70.255C51.9437 69.5203 52.282 68.5537 52.282 67.355C52.282 66.021 51.9243 64.9867 51.209 64.252C50.513 63.498 49.556 63.121 48.338 63.121C47.12 63.121 46.1533 63.5077 45.438 64.281C44.742 65.035 44.394 66.0307 44.394 67.268C44.394 68.4473 44.7323 69.4237 45.409 70.197C46.105 70.951 47.149 71.328 48.541 71.328ZM62.6282 71.154C62.6282 67.8093 63.1889 65.1993 64.3102 63.324C65.4509 61.4293 67.4035 60.482 70.1682 60.482C72.9329 60.482 74.8759 61.4293 75.9972 63.324C77.1379 65.1993 77.7082 67.8093 77.7082 71.154C77.7082 74.5373 77.1379 77.186 75.9972 79.1C74.8759 80.9947 72.9329 81.942 70.1682 81.942C67.4035 81.942 65.4509 80.9947 64.3102 79.1C63.1889 77.186 62.6282 74.5373 62.6282 71.154ZM74.4602 71.154C74.4602 69.588 74.3539 68.2637 74.1412 67.181C73.9479 66.0983 73.5419 65.2187 72.9232 64.542C72.3045 63.846 71.3862 63.498 70.1682 63.498C68.9502 63.498 68.0319 63.846 67.4132 64.542C66.7945 65.2187 66.3789 66.0983 66.1662 67.181C65.9729 68.2637 65.8762 69.588 65.8762 71.154C65.8762 72.778 65.9729 74.141 66.1662 75.243C66.3595 76.345 66.7655 77.2343 67.3842 77.911C68.0222 78.5877 68.9502 78.926 70.1682 78.926C71.3862 78.926 72.3045 78.5877 72.9232 77.911C73.5612 77.2343 73.9769 76.345 74.1702 75.243C74.3635 74.141 74.4602 72.778 74.4602 71.154ZM84.1643 65.963C84.1643 64.5517 84.5703 63.4497 85.3823 62.657C86.2137 61.845 87.277 61.439 88.5723 61.439C89.8677 61.439 90.9213 61.845 91.7333 62.657C92.5647 63.4497 92.9803 64.5517 92.9803 65.963C92.9803 67.3743 92.5647 68.486 91.7333 69.298C90.9213 70.11 89.8677 70.516 88.5723 70.516C87.277 70.516 86.2137 70.11 85.3823 69.298C84.5703 68.486 84.1643 67.3743 84.1643 65.963ZM101.854 61.816L90.2833 82H87.0353L98.6063 61.816H101.854ZM88.5723 63.44C87.3543 63.44 86.7453 64.281 86.7453 65.963C86.7453 67.6643 87.3543 68.515 88.5723 68.515C89.1523 68.515 89.597 68.312 89.9063 67.906C90.235 67.4807 90.3993 66.833 90.3993 65.963C90.3993 64.281 89.7903 63.44 88.5723 63.44ZM95.9673 77.824C95.9673 76.4127 96.3733 75.3107 97.1853 74.518C98.0167 73.706 99.08 73.3 100.375 73.3C101.651 73.3 102.695 73.706 103.507 74.518C104.339 75.3107 104.754 76.4127 104.754 77.824C104.754 79.2353 104.339 80.347 103.507 81.159C102.695 81.971 101.651 82.377 100.375 82.377C99.08 82.377 98.0167 81.971 97.1853 81.159C96.3733 80.347 95.9673 79.2353 95.9673 77.824ZM100.346 75.301C99.1283 75.301 98.5193 76.142 98.5193 77.824C98.5193 79.506 99.1283 80.347 100.346 80.347C101.564 80.347 102.173 79.506 102.173 77.824C102.173 76.142 101.564 75.301 100.346 75.301Z" fill="#666666"/>
</svg>
