<svg width="62" height="150" viewBox="0 0 62 150" fill="none" xmlns="http://www.w3.org/2000/svg">
<circle cx="31" cy="31" r="31" fill="#FFB400"/>
<path d="M33.625 34.8438C33.625 35.2754 33.2754 35.625 32.8438 35.625H28.1562C27.7246 35.625 27.375 35.2754 27.375 34.8438V32.5H18V39.5312C18 40.7813 19.0937 41.875 20.3438 41.875H40.6562C41.9063 41.875 43 40.7813 43 39.5312V32.5H33.625V34.8438ZM40.6562 24.6875H36.75V22.3438C36.75 21.0937 35.6563 20 34.4062 20H26.5938C25.3437 20 24.25 21.0937 24.25 22.3438V24.6875H20.3438C19.0937 24.6875 18 25.7812 18 27.0312V30.9375H43V27.0312C43 25.7812 41.9063 24.6875 40.6562 24.6875ZM33.625 24.6875H27.375V23.125H33.625V24.6875Z" fill="white"/>
<path d="M31.5 62V149.5" stroke="#666666" stroke-opacity="0.75" stroke-width="0.5"/>
</svg>
