<svg width="1113" height="193" viewBox="0 0 1113 193" fill="none" xmlns="http://www.w3.org/2000/svg">
<path d="M38.371 160.729V181H36.341V171.517H25.35V181H23.32V160.729H25.35V169.835H36.341V160.729H38.371ZM58.3436 160.729V162.411H52.7176V181H50.6876V162.411H45.0326V160.729H58.3436ZM84.836 160.99V181H82.806V165.021L75.672 181H74.193L67.059 165.079V181H65.029V160.99H67.175L74.918 178.332L82.661 160.99H84.836ZM94.9511 179.347H102.23V181H92.9211V160.729H94.9511V179.347ZM121.28 161.947H110.666V169.371C111.15 168.694 111.855 168.143 112.783 167.718C113.711 167.273 114.717 167.051 115.799 167.051C117.385 167.051 118.68 167.38 119.685 168.037C120.691 168.675 121.416 169.516 121.86 170.56C122.305 171.585 122.527 172.687 122.527 173.866C122.527 175.219 122.266 176.447 121.744 177.549C121.242 178.632 120.459 179.492 119.395 180.13C118.351 180.768 117.046 181.087 115.48 181.087C113.489 181.087 111.875 180.575 110.637 179.55C109.4 178.506 108.646 177.104 108.375 175.345H110.376C110.628 176.621 111.208 177.607 112.116 178.303C113.025 178.999 114.146 179.347 115.48 179.347C117.162 179.347 118.429 178.854 119.279 177.868C120.149 176.863 120.584 175.538 120.584 173.895C120.584 172.29 120.149 171.043 119.279 170.154C118.409 169.245 117.162 168.791 115.538 168.791C114.417 168.791 113.431 169.052 112.58 169.574C111.73 170.096 111.101 170.802 110.695 171.691H108.781V160.178H121.28V161.947Z" fill="#666666"/>
<path d="M145 72.5C145 112.541 112.541 145 72.5 145C32.4594 145 0 112.541 0 72.5C0 32.4594 32.4594 0 72.5 0C112.541 0 145 32.4594 145 72.5ZM7.975 72.5C7.975 108.136 36.8638 137.025 72.5 137.025C108.136 137.025 137.025 108.136 137.025 72.5C137.025 36.8638 108.136 7.975 72.5 7.975C36.8638 7.975 7.975 36.8638 7.975 72.5Z" fill="#EEEEEE"/>
<path d="M72.5 0C89.7625 2.05853e-07 106.458 6.15948 119.585 17.3705C132.711 28.5816 141.407 44.1085 144.107 61.1584C146.808 78.2084 143.336 95.6624 134.316 110.381C125.297 125.1 111.321 136.117 94.9039 141.452C78.4863 146.786 60.7041 146.087 44.7556 139.481C28.8072 132.875 15.7392 120.795 7.90213 105.415C0.0650902 90.0336 -2.02666 72.361 2.00312 55.5755C6.03289 38.79 15.9197 23.9931 29.8853 13.8465L34.5729 20.2983C22.1436 29.3289 13.3443 42.4981 9.75777 57.4372C6.17127 72.3763 8.03293 88.1049 15.0079 101.794C21.9829 115.483 33.6134 126.234 47.8075 132.113C62.0016 137.993 77.8278 138.615 92.4395 133.867C107.051 129.119 119.489 119.314 127.517 106.214C135.544 93.1145 138.634 77.5804 136.231 62.406C133.827 47.2316 126.088 33.4126 114.406 23.4348C102.723 13.4569 87.8636 7.975 72.5 7.975V0Z" fill="#FFB400"/>
<path d="M44.858 76.258C45.0513 77.2247 45.467 77.9593 46.105 78.462C46.743 78.9647 47.6033 79.216 48.686 79.216C50.0587 79.216 51.064 78.6747 51.702 77.592C52.34 76.5093 52.659 74.663 52.659 72.053C52.195 72.7103 51.5377 73.2227 50.687 73.59C49.8557 73.938 48.947 74.112 47.961 74.112C46.7043 74.112 45.5637 73.8607 44.539 73.358C43.5143 72.836 42.7023 72.0723 42.103 71.067C41.523 70.0423 41.233 68.805 41.233 67.355C41.233 65.2283 41.8517 63.5367 43.089 62.28C44.3457 61.004 46.0663 60.366 48.251 60.366C50.8803 60.366 52.746 61.2457 53.848 63.005C54.9693 64.745 55.53 67.4227 55.53 71.038C55.53 73.532 55.3173 75.5717 54.892 77.157C54.486 78.7423 53.7707 79.941 52.746 80.753C51.7213 81.565 50.3003 81.971 48.483 81.971C46.4143 81.971 44.8193 81.4297 43.698 80.347C42.5767 79.2643 41.9483 77.9013 41.813 76.258H44.858ZM48.541 71.328C49.701 71.328 50.6097 70.9703 51.267 70.255C51.9437 69.5203 52.282 68.5537 52.282 67.355C52.282 66.021 51.9243 64.9867 51.209 64.252C50.513 63.498 49.556 63.121 48.338 63.121C47.12 63.121 46.1533 63.5077 45.438 64.281C44.742 65.035 44.394 66.0307 44.394 67.268C44.394 68.4473 44.7323 69.4237 45.409 70.197C46.105 70.951 47.149 71.328 48.541 71.328ZM62.6282 71.154C62.6282 67.8093 63.1889 65.1993 64.3102 63.324C65.4509 61.4293 67.4035 60.482 70.1682 60.482C72.9329 60.482 74.8759 61.4293 75.9972 63.324C77.1379 65.1993 77.7082 67.8093 77.7082 71.154C77.7082 74.5373 77.1379 77.186 75.9972 79.1C74.8759 80.9947 72.9329 81.942 70.1682 81.942C67.4035 81.942 65.4509 80.9947 64.3102 79.1C63.1889 77.186 62.6282 74.5373 62.6282 71.154ZM74.4602 71.154C74.4602 69.588 74.3539 68.2637 74.1412 67.181C73.9479 66.0983 73.5419 65.2187 72.9232 64.542C72.3045 63.846 71.3862 63.498 70.1682 63.498C68.9502 63.498 68.0319 63.846 67.4132 64.542C66.7945 65.2187 66.3789 66.0983 66.1662 67.181C65.9729 68.2637 65.8762 69.588 65.8762 71.154C65.8762 72.778 65.9729 74.141 66.1662 75.243C66.3595 76.345 66.7655 77.2343 67.3842 77.911C68.0222 78.5877 68.9502 78.926 70.1682 78.926C71.3862 78.926 72.3045 78.5877 72.9232 77.911C73.5612 77.2343 73.9769 76.345 74.1702 75.243C74.3635 74.141 74.4602 72.778 74.4602 71.154ZM84.1643 65.963C84.1643 64.5517 84.5703 63.4497 85.3823 62.657C86.2137 61.845 87.277 61.439 88.5723 61.439C89.8677 61.439 90.9213 61.845 91.7333 62.657C92.5647 63.4497 92.9803 64.5517 92.9803 65.963C92.9803 67.3743 92.5647 68.486 91.7333 69.298C90.9213 70.11 89.8677 70.516 88.5723 70.516C87.277 70.516 86.2137 70.11 85.3823 69.298C84.5703 68.486 84.1643 67.3743 84.1643 65.963ZM101.854 61.816L90.2833 82H87.0353L98.6063 61.816H101.854ZM88.5723 63.44C87.3543 63.44 86.7453 64.281 86.7453 65.963C86.7453 67.6643 87.3543 68.515 88.5723 68.515C89.1523 68.515 89.597 68.312 89.9063 67.906C90.235 67.4807 90.3993 66.833 90.3993 65.963C90.3993 64.281 89.7903 63.44 88.5723 63.44ZM95.9673 77.824C95.9673 76.4127 96.3733 75.3107 97.1853 74.518C98.0167 73.706 99.08 73.3 100.375 73.3C101.651 73.3 102.695 73.706 103.507 74.518C104.339 75.3107 104.754 76.4127 104.754 77.824C104.754 79.2353 104.339 80.347 103.507 81.159C102.695 81.971 101.651 82.377 100.375 82.377C99.08 82.377 98.0167 81.971 97.1853 81.159C96.3733 80.347 95.9673 79.2353 95.9673 77.824ZM100.346 75.301C99.1283 75.301 98.5193 76.142 98.5193 77.824C98.5193 79.506 99.1283 80.347 100.346 80.347C101.564 80.347 102.173 79.506 102.173 77.824C102.173 76.142 101.564 75.301 100.346 75.301Z" fill="#666666"/>
<path d="M274.392 170.85C274.392 168.859 274.827 167.08 275.697 165.514C276.567 163.929 277.756 162.701 279.264 161.831C280.772 160.942 282.454 160.497 284.31 160.497C286.572 160.497 288.505 161.038 290.11 162.121C291.734 163.184 292.913 164.692 293.648 166.645H291.27C290.69 165.272 289.801 164.199 288.602 163.426C287.423 162.653 285.992 162.266 284.31 162.266C282.821 162.266 281.478 162.614 280.279 163.31C279.1 164.006 278.172 165.011 277.495 166.326C276.818 167.621 276.48 169.129 276.48 170.85C276.48 172.571 276.818 174.079 277.495 175.374C278.172 176.669 279.1 177.665 280.279 178.361C281.478 179.057 282.821 179.405 284.31 179.405C285.992 179.405 287.423 179.028 288.602 178.274C289.801 177.501 290.69 176.437 291.27 175.084H293.648C292.913 177.017 291.734 178.516 290.11 179.579C288.486 180.642 286.553 181.174 284.31 181.174C282.454 181.174 280.772 180.739 279.264 179.869C277.756 178.98 276.567 177.752 275.697 176.186C274.827 174.62 274.392 172.841 274.392 170.85ZM307.321 181.203C305.987 181.203 304.808 180.971 303.783 180.507C302.778 180.043 301.985 179.395 301.405 178.564C300.825 177.733 300.516 176.805 300.477 175.78H302.623C302.72 176.766 303.155 177.636 303.928 178.39C304.701 179.125 305.832 179.492 307.321 179.492C308.694 179.492 309.776 179.144 310.569 178.448C311.381 177.733 311.787 176.834 311.787 175.751C311.787 174.881 311.565 174.185 311.12 173.663C310.675 173.122 310.124 172.725 309.467 172.474C308.81 172.203 307.901 171.913 306.741 171.604C305.388 171.237 304.315 170.879 303.522 170.531C302.729 170.183 302.053 169.642 301.492 168.907C300.931 168.172 300.651 167.177 300.651 165.92C300.651 164.876 300.922 163.948 301.463 163.136C302.004 162.305 302.768 161.657 303.754 161.193C304.74 160.729 305.871 160.497 307.147 160.497C309.022 160.497 310.53 160.961 311.671 161.889C312.831 162.798 313.498 163.977 313.672 165.427H311.468C311.333 164.596 310.878 163.861 310.105 163.223C309.332 162.566 308.288 162.237 306.973 162.237C305.755 162.237 304.74 162.566 303.928 163.223C303.116 163.861 302.71 164.741 302.71 165.862C302.71 166.713 302.932 167.399 303.377 167.921C303.822 168.443 304.373 168.839 305.03 169.11C305.707 169.381 306.615 169.671 307.756 169.98C309.071 170.347 310.134 170.715 310.946 171.082C311.758 171.43 312.444 171.971 313.005 172.706C313.566 173.441 313.846 174.427 313.846 175.664C313.846 176.611 313.595 177.51 313.092 178.361C312.589 179.212 311.845 179.898 310.859 180.42C309.873 180.942 308.694 181.203 307.321 181.203ZM327.397 181.203C326.063 181.203 324.883 180.971 323.859 180.507C322.853 180.043 322.061 179.395 321.481 178.564C320.901 177.733 320.591 176.805 320.553 175.78H322.699C322.795 176.766 323.23 177.636 324.004 178.39C324.777 179.125 325.908 179.492 327.397 179.492C328.769 179.492 329.852 179.144 330.645 178.448C331.457 177.733 331.863 176.834 331.863 175.751C331.863 174.881 331.64 174.185 331.196 173.663C330.751 173.122 330.2 172.725 329.543 172.474C328.885 172.203 327.977 171.913 326.817 171.604C325.463 171.237 324.39 170.879 323.598 170.531C322.805 170.183 322.128 169.642 321.568 168.907C321.007 168.172 320.727 167.177 320.727 165.92C320.727 164.876 320.997 163.948 321.539 163.136C322.08 162.305 322.844 161.657 323.83 161.193C324.816 160.729 325.947 160.497 327.223 160.497C329.098 160.497 330.606 160.961 331.747 161.889C332.907 162.798 333.574 163.977 333.748 165.427H331.544C331.408 164.596 330.954 163.861 330.181 163.223C329.407 162.566 328.363 162.237 327.049 162.237C325.831 162.237 324.816 162.566 324.004 163.223C323.192 163.861 322.786 164.741 322.786 165.862C322.786 166.713 323.008 167.399 323.453 167.921C323.897 168.443 324.448 168.839 325.106 169.11C325.782 169.381 326.691 169.671 327.832 169.98C329.146 170.347 330.21 170.715 331.022 171.082C331.834 171.43 332.52 171.971 333.081 172.706C333.641 173.441 333.922 174.427 333.922 175.664C333.922 176.611 333.67 177.51 333.168 178.361C332.665 179.212 331.921 179.898 330.935 180.42C329.949 180.942 328.769 181.203 327.397 181.203ZM340.802 165.514C340.938 163.755 341.614 162.372 342.832 161.367C344.07 160.342 345.665 159.83 347.617 159.83C348.913 159.83 350.024 160.062 350.952 160.526C351.88 160.99 352.576 161.628 353.04 162.44C353.524 163.233 353.765 164.132 353.765 165.137C353.765 166.355 353.408 167.409 352.692 168.298C351.977 169.187 350.962 169.738 349.647 169.951V170.096C351.02 170.367 352.112 170.966 352.924 171.894C353.736 172.803 354.142 174.001 354.142 175.49C354.142 177.153 353.582 178.516 352.46 179.579C351.358 180.623 349.754 181.145 347.646 181.145C345.636 181.145 343.983 180.623 342.687 179.579C341.392 178.516 340.648 177.017 340.454 175.084H342.426C342.6 176.379 343.142 177.433 344.05 178.245C344.959 179.038 346.158 179.434 347.646 179.434C349.116 179.434 350.237 179.047 351.01 178.274C351.803 177.501 352.199 176.515 352.199 175.316C352.199 172.377 350.082 170.908 345.848 170.908H345.21V169.197H345.877C349.821 169.197 351.793 167.911 351.793 165.34C351.793 164.219 351.426 163.32 350.691 162.643C349.957 161.947 348.913 161.599 347.559 161.599C346.245 161.599 345.152 161.947 344.282 162.643C343.432 163.32 342.929 164.277 342.774 165.514H340.802Z" fill="#666666"/>
<path d="M387 72.5C387 112.541 354.541 145 314.5 145C274.459 145 242 112.541 242 72.5C242 32.4594 274.459 0 314.5 0C354.541 0 387 32.4594 387 72.5ZM249.975 72.5C249.975 108.136 278.864 137.025 314.5 137.025C350.136 137.025 379.025 108.136 379.025 72.5C379.025 36.8638 350.136 7.975 314.5 7.975C278.864 7.975 249.975 36.8638 249.975 72.5Z" fill="#EEEEEE"/>
<path d="M314.5 0C329.81 1.82576e-07 344.728 4.84698 357.114 13.8463C369.501 22.8456 378.72 35.5351 383.452 50.0963C388.183 64.6574 388.183 80.3426 383.452 94.9037C378.72 109.465 369.501 122.154 357.114 131.154C344.728 140.153 329.81 145 314.5 145C299.189 145 284.272 140.153 271.886 131.154C259.499 122.154 250.28 109.465 245.548 94.9037C240.817 80.3426 240.817 64.6574 245.548 50.0963L253.133 52.5607C248.922 65.5201 248.922 79.4799 253.133 92.4393C257.344 105.399 265.549 116.692 276.573 124.702C287.597 132.711 300.874 137.025 314.5 137.025C328.126 137.025 341.403 132.711 352.427 124.702C363.451 116.692 371.656 105.399 375.867 92.4393C380.078 79.4799 380.078 65.5201 375.867 52.5607C371.656 39.6013 363.451 28.3075 352.427 20.2982C341.403 12.2888 328.126 7.975 314.5 7.975V0Z" fill="#FFB400"/>
<path d="M286.307 70.951C284.296 69.9457 283.291 68.3603 283.291 66.195C283.291 65.151 283.552 64.194 284.074 63.324C284.596 62.454 285.379 61.7677 286.423 61.265C287.467 60.743 288.743 60.482 290.251 60.482C291.74 60.482 293.006 60.743 294.05 61.265C295.113 61.7677 295.906 62.454 296.428 63.324C296.95 64.194 297.211 65.151 297.211 66.195C297.211 67.2777 296.931 68.2347 296.37 69.066C295.829 69.878 295.104 70.5063 294.195 70.951C295.297 71.357 296.167 72.024 296.805 72.952C297.443 73.8607 297.762 74.9337 297.762 76.171C297.762 77.4277 297.443 78.5393 296.805 79.506C296.167 80.4727 295.278 81.217 294.137 81.739C292.996 82.261 291.701 82.522 290.251 82.522C288.801 82.522 287.506 82.261 286.365 81.739C285.244 81.217 284.364 80.4727 283.726 79.506C283.088 78.5393 282.769 77.4277 282.769 76.171C282.769 74.9143 283.088 73.8317 283.726 72.923C284.364 72.0143 285.224 71.357 286.307 70.951ZM294.05 66.601C294.05 65.5183 293.712 64.687 293.035 64.107C292.358 63.527 291.43 63.237 290.251 63.237C289.091 63.237 288.173 63.527 287.496 64.107C286.819 64.687 286.481 65.528 286.481 66.63C286.481 67.5967 286.829 68.3893 287.525 69.008C288.24 69.6073 289.149 69.907 290.251 69.907C291.353 69.907 292.262 69.5977 292.977 68.979C293.692 68.3603 294.05 67.5677 294.05 66.601ZM290.251 72.401C288.975 72.401 287.931 72.72 287.119 73.358C286.326 73.9767 285.93 74.8757 285.93 76.055C285.93 77.157 286.317 78.056 287.09 78.752C287.863 79.4287 288.917 79.767 290.251 79.767C291.566 79.767 292.6 79.419 293.354 78.723C294.127 78.027 294.514 77.1377 294.514 76.055C294.514 74.895 294.118 73.996 293.325 73.358C292.552 72.72 291.527 72.401 290.251 72.401ZM304.713 71.154C304.713 67.8093 305.274 65.1993 306.395 63.324C307.536 61.4293 309.488 60.482 312.253 60.482C315.018 60.482 316.961 61.4293 318.082 63.324C319.223 65.1993 319.793 67.8093 319.793 71.154C319.793 74.5373 319.223 77.186 318.082 79.1C316.961 80.9947 315.018 81.942 312.253 81.942C309.488 81.942 307.536 80.9947 306.395 79.1C305.274 77.186 304.713 74.5373 304.713 71.154ZM316.545 71.154C316.545 69.588 316.439 68.2637 316.226 67.181C316.033 66.0983 315.627 65.2187 315.008 64.542C314.389 63.846 313.471 63.498 312.253 63.498C311.035 63.498 310.117 63.846 309.498 64.542C308.879 65.2187 308.464 66.0983 308.251 67.181C308.058 68.2637 307.961 69.588 307.961 71.154C307.961 72.778 308.058 74.141 308.251 75.243C308.444 76.345 308.85 77.2343 309.469 77.911C310.107 78.5877 311.035 78.926 312.253 78.926C313.471 78.926 314.389 78.5877 315.008 77.911C315.646 77.2343 316.062 76.345 316.255 75.243C316.448 74.141 316.545 72.778 316.545 71.154ZM326.249 65.963C326.249 64.5517 326.655 63.4497 327.467 62.657C328.299 61.845 329.362 61.439 330.657 61.439C331.953 61.439 333.006 61.845 333.818 62.657C334.65 63.4497 335.065 64.5517 335.065 65.963C335.065 67.3743 334.65 68.486 333.818 69.298C333.006 70.11 331.953 70.516 330.657 70.516C329.362 70.516 328.299 70.11 327.467 69.298C326.655 68.486 326.249 67.3743 326.249 65.963ZM343.939 61.816L332.368 82H329.12L340.691 61.816H343.939ZM330.657 63.44C329.439 63.44 328.83 64.281 328.83 65.963C328.83 67.6643 329.439 68.515 330.657 68.515C331.237 68.515 331.682 68.312 331.991 67.906C332.32 67.4807 332.484 66.833 332.484 65.963C332.484 64.281 331.875 63.44 330.657 63.44ZM338.052 77.824C338.052 76.4127 338.458 75.3107 339.27 74.518C340.102 73.706 341.165 73.3 342.46 73.3C343.736 73.3 344.78 73.706 345.592 74.518C346.424 75.3107 346.839 76.4127 346.839 77.824C346.839 79.2353 346.424 80.347 345.592 81.159C344.78 81.971 343.736 82.377 342.46 82.377C341.165 82.377 340.102 81.971 339.27 81.159C338.458 80.347 338.052 79.2353 338.052 77.824ZM342.431 75.301C341.213 75.301 340.604 76.142 340.604 77.824C340.604 79.506 341.213 80.347 342.431 80.347C343.649 80.347 344.258 79.506 344.258 77.824C344.258 76.142 343.649 75.301 342.431 75.301Z" fill="#666666"/>
<path d="M469.687 160.729V176.07C469.687 177.617 469.213 178.864 468.266 179.811C467.319 180.739 466.052 181.203 464.467 181.203C462.824 181.203 461.509 180.71 460.523 179.724C459.556 178.719 459.073 177.365 459.073 175.664H461.132C461.151 176.766 461.422 177.665 461.944 178.361C462.485 179.057 463.326 179.405 464.467 179.405C465.55 179.405 466.352 179.086 466.874 178.448C467.396 177.81 467.657 177.017 467.657 176.07V160.729H469.687ZM490.017 176.186H480.795L479.026 181H476.88L484.275 160.99H486.566L493.932 181H491.786L490.017 176.186ZM489.408 174.504L485.406 163.542L481.404 174.504H489.408ZM516.736 160.729L509.051 181H506.731L499.046 160.729H501.25L507.891 178.796L514.59 160.729H516.736ZM535.011 176.186H525.789L524.02 181H521.874L529.269 160.99H531.56L538.926 181H536.78L535.011 176.186ZM534.402 174.504L530.4 163.542L526.398 174.504H534.402ZM551.812 181.203C550.478 181.203 549.298 180.971 548.274 180.507C547.268 180.043 546.476 179.395 545.896 178.564C545.316 177.733 545.006 176.805 544.968 175.78H547.114C547.21 176.766 547.645 177.636 548.419 178.39C549.192 179.125 550.323 179.492 551.812 179.492C553.184 179.492 554.267 179.144 555.06 178.448C555.872 177.733 556.278 176.834 556.278 175.751C556.278 174.881 556.055 174.185 555.611 173.663C555.166 173.122 554.615 172.725 553.958 172.474C553.3 172.203 552.392 171.913 551.232 171.604C549.878 171.237 548.805 170.879 548.013 170.531C547.22 170.183 546.543 169.642 545.983 168.907C545.422 168.172 545.142 167.177 545.142 165.92C545.142 164.876 545.412 163.948 545.954 163.136C546.495 162.305 547.259 161.657 548.245 161.193C549.231 160.729 550.362 160.497 551.638 160.497C553.513 160.497 555.021 160.961 556.162 161.889C557.322 162.798 557.989 163.977 558.163 165.427H555.959C555.823 164.596 555.369 163.861 554.596 163.223C553.822 162.566 552.778 162.237 551.464 162.237C550.246 162.237 549.231 162.566 548.419 163.223C547.607 163.861 547.201 164.741 547.201 165.862C547.201 166.713 547.423 167.399 547.868 167.921C548.312 168.443 548.863 168.839 549.521 169.11C550.197 169.381 551.106 169.671 552.247 169.98C553.561 170.347 554.625 170.715 555.437 171.082C556.249 171.43 556.935 171.971 557.496 172.706C558.056 173.441 558.337 174.427 558.337 175.664C558.337 176.611 558.085 177.51 557.583 178.361C557.08 179.212 556.336 179.898 555.35 180.42C554.364 180.942 553.184 181.203 551.812 181.203ZM564.812 170.85C564.812 168.859 565.247 167.08 566.117 165.514C566.987 163.929 568.176 162.701 569.684 161.831C571.192 160.942 572.874 160.497 574.73 160.497C576.992 160.497 578.925 161.038 580.53 162.121C582.154 163.184 583.333 164.692 584.068 166.645H581.69C581.11 165.272 580.22 164.199 579.022 163.426C577.842 162.653 576.412 162.266 574.73 162.266C573.241 162.266 571.897 162.614 570.699 163.31C569.519 164.006 568.591 165.011 567.915 166.326C567.238 167.621 566.9 169.129 566.9 170.85C566.9 172.571 567.238 174.079 567.915 175.374C568.591 176.669 569.519 177.665 570.699 178.361C571.897 179.057 573.241 179.405 574.73 179.405C576.412 179.405 577.842 179.028 579.022 178.274C580.22 177.501 581.11 176.437 581.69 175.084H584.068C583.333 177.017 582.154 178.516 580.53 179.579C578.906 180.642 576.972 181.174 574.73 181.174C572.874 181.174 571.192 180.739 569.684 179.869C568.176 178.98 566.987 177.752 566.117 176.186C565.247 174.62 564.812 172.841 564.812 170.85ZM602.381 181L597.364 172.532H593.623V181H591.593V160.729H597.683C599.945 160.729 601.656 161.27 602.816 162.353C603.995 163.436 604.585 164.857 604.585 166.616C604.585 168.085 604.159 169.342 603.309 170.386C602.477 171.411 601.24 172.078 599.597 172.387L604.817 181H602.381ZM593.623 170.879H597.712C599.297 170.879 600.486 170.492 601.279 169.719C602.091 168.946 602.497 167.911 602.497 166.616C602.497 165.282 602.11 164.257 601.337 163.542C600.563 162.807 599.345 162.44 597.683 162.44H593.623V170.879ZM614.123 160.729V181H612.093V160.729H614.123ZM635.163 166.558C635.163 168.298 634.593 169.7 633.452 170.763C632.311 171.826 630.6 172.358 628.319 172.358H624.23V181H622.2V160.729H628.319C630.581 160.729 632.282 161.261 633.423 162.324C634.583 163.387 635.163 164.799 635.163 166.558ZM628.319 170.618C631.49 170.618 633.075 169.265 633.075 166.558C633.075 165.205 632.698 164.18 631.944 163.484C631.19 162.788 629.982 162.44 628.319 162.44H624.23V170.618H628.319ZM653.91 160.729V162.411H648.284V181H646.254V162.411H640.599V160.729H653.91Z" fill="#666666"/>
<path d="M629 72.5C629 112.541 596.541 145 556.5 145C516.459 145 484 112.541 484 72.5C484 32.4594 516.459 0 556.5 0C596.541 0 629 32.4594 629 72.5ZM491.975 72.5C491.975 108.136 520.864 137.025 556.5 137.025C592.136 137.025 621.025 108.136 621.025 72.5C621.025 36.8638 592.136 7.975 556.5 7.975C520.864 7.975 491.975 36.8638 491.975 72.5Z" fill="#EEEEEE"/>
<path d="M556.5 0C570.839 1.70993e-07 584.856 4.25205 596.779 12.2185C608.701 20.1849 617.994 31.5078 623.481 44.7555C628.969 58.0031 630.404 72.5804 627.607 86.6441C624.81 100.708 617.905 113.626 607.765 123.765C597.626 133.905 584.708 140.81 570.644 143.607C556.58 146.404 542.003 144.969 528.755 139.481C515.508 133.994 504.185 124.701 496.218 112.779C488.252 100.856 484 86.8391 484 72.5H491.975C491.975 85.2618 495.759 97.7371 502.849 108.348C509.94 118.959 520.017 127.23 531.807 132.113C543.598 136.997 556.572 138.275 569.088 135.785C581.605 133.295 593.102 127.15 602.126 118.126C611.15 109.102 617.295 97.6048 619.785 85.0882C622.275 72.5716 620.997 59.5978 616.113 47.8074C611.23 36.0169 602.959 25.9395 592.348 18.8494C581.737 11.7593 569.262 7.975 556.5 7.975V0Z" fill="#FFB400"/>
<path d="M538.138 63.411L530.076 82H526.741L534.89 63.759H524.16V60.946H538.138V63.411ZM558.078 63.701H548.363V69.472C548.769 68.9307 549.368 68.4763 550.161 68.109C550.973 67.7417 551.833 67.558 552.742 67.558C554.366 67.558 555.68 67.906 556.686 68.602C557.71 69.298 558.435 70.1777 558.861 71.241C559.305 72.3043 559.528 73.4257 559.528 74.605C559.528 76.0357 559.247 77.3117 558.687 78.433C558.145 79.535 557.324 80.405 556.222 81.043C555.139 81.681 553.805 82 552.22 82C550.112 82 548.421 81.478 547.145 80.434C545.869 79.39 545.105 78.0077 544.854 76.287H548.073C548.285 77.1957 548.759 77.9207 549.494 78.462C550.228 78.984 551.147 79.245 552.249 79.245C553.621 79.245 554.646 78.8293 555.323 77.998C556.019 77.1667 556.367 76.0647 556.367 74.692C556.367 73.3 556.019 72.2367 555.323 71.502C554.627 70.748 553.602 70.371 552.249 70.371C551.301 70.371 550.499 70.6127 549.842 71.096C549.204 71.56 548.74 72.198 548.45 73.01H545.318V60.801H558.078V63.701ZM565.927 65.963C565.927 64.5517 566.333 63.4497 567.145 62.657C567.976 61.845 569.04 61.439 570.335 61.439C571.63 61.439 572.684 61.845 573.496 62.657C574.327 63.4497 574.743 64.5517 574.743 65.963C574.743 67.3743 574.327 68.486 573.496 69.298C572.684 70.11 571.63 70.516 570.335 70.516C569.04 70.516 567.976 70.11 567.145 69.298C566.333 68.486 565.927 67.3743 565.927 65.963ZM583.617 61.816L572.046 82H568.798L580.369 61.816H583.617ZM570.335 63.44C569.117 63.44 568.508 64.281 568.508 65.963C568.508 67.6643 569.117 68.515 570.335 68.515C570.915 68.515 571.36 68.312 571.669 67.906C571.998 67.4807 572.162 66.833 572.162 65.963C572.162 64.281 571.553 63.44 570.335 63.44ZM577.73 77.824C577.73 76.4127 578.136 75.3107 578.948 74.518C579.779 73.706 580.843 73.3 582.138 73.3C583.414 73.3 584.458 73.706 585.27 74.518C586.101 75.3107 586.517 76.4127 586.517 77.824C586.517 79.2353 586.101 80.347 585.27 81.159C584.458 81.971 583.414 82.377 582.138 82.377C580.843 82.377 579.779 81.971 578.948 81.159C578.136 80.347 577.73 79.2353 577.73 77.824ZM582.109 75.301C580.891 75.301 580.282 76.142 580.282 77.824C580.282 79.506 580.891 80.347 582.109 80.347C583.327 80.347 583.936 79.506 583.936 77.824C583.936 76.142 583.327 75.301 582.109 75.301Z" fill="#666666"/>
<path d="M758.263 160.729V173.489C758.263 175.5 758.737 176.988 759.684 177.955C760.651 178.922 761.965 179.405 763.628 179.405C765.291 179.405 766.586 178.931 767.514 177.984C768.461 177.017 768.935 175.519 768.935 173.489V160.729H770.965V173.46C770.965 176.031 770.279 177.965 768.906 179.26C767.553 180.555 765.784 181.203 763.599 181.203C761.414 181.203 759.636 180.555 758.263 179.26C756.91 177.965 756.233 176.031 756.233 173.46V160.729H758.263ZM786.281 170.879L792.429 181H790.167L785.005 172.532L780.104 181H777.842L783.961 170.792L777.842 160.729H780.104L785.237 169.168L790.196 160.729H792.458L786.281 170.879ZM808.436 153.74L800.432 185.814H798.431L806.377 153.74H808.436ZM817.64 160.729V173.489C817.64 175.5 818.114 176.988 819.061 177.955C820.028 178.922 821.343 179.405 823.005 179.405C824.668 179.405 825.963 178.931 826.891 177.984C827.839 177.017 828.312 175.519 828.312 173.489V160.729H830.342V173.46C830.342 176.031 829.656 177.965 828.283 179.26C826.93 180.555 825.161 181.203 822.976 181.203C820.792 181.203 819.013 180.555 817.64 179.26C816.287 177.965 815.61 176.031 815.61 173.46V160.729H817.64ZM840.38 160.729V181H838.35V160.729H840.38Z" fill="#666666"/>
<path d="M871 72.5C871 112.541 838.541 145 798.5 145C758.459 145 726 112.541 726 72.5C726 32.4594 758.459 0 798.5 0C838.541 0 871 32.4594 871 72.5ZM733.975 72.5C733.975 108.136 762.864 137.025 798.5 137.025C834.136 137.025 863.025 108.136 863.025 72.5C863.025 36.8638 834.136 7.975 798.5 7.975C762.864 7.975 733.975 36.8638 733.975 72.5Z" fill="#EEEEEE"/>
<path d="M798.5 0C815.762 2.05853e-07 832.458 6.15948 845.585 17.3705C858.711 28.5816 867.407 44.1085 870.107 61.1584C872.808 78.2084 869.336 95.6624 860.316 110.381C851.297 125.1 837.321 136.117 820.904 141.452C804.486 146.786 786.704 146.087 770.756 139.481C754.807 132.875 741.739 120.795 733.902 105.415C726.065 90.0336 723.973 72.361 728.003 55.5755C732.033 38.79 741.92 23.9931 755.885 13.8465L760.573 20.2983C748.144 29.3289 739.344 42.4981 735.758 57.4372C732.171 72.3763 734.033 88.1049 741.008 101.794C747.983 115.483 759.613 126.234 773.808 132.113C788.002 137.993 803.828 138.615 818.439 133.867C833.051 129.119 845.489 119.314 853.517 106.214C861.544 93.1145 864.634 77.5804 862.231 62.406C859.827 47.2316 852.088 33.4126 840.406 23.4348C828.723 13.4569 813.864 7.975 798.5 7.975V0Z" fill="#FFB400"/>
<path d="M770.858 76.258C771.051 77.2247 771.467 77.9593 772.105 78.462C772.743 78.9647 773.603 79.216 774.686 79.216C776.059 79.216 777.064 78.6747 777.702 77.592C778.34 76.5093 778.659 74.663 778.659 72.053C778.195 72.7103 777.538 73.2227 776.687 73.59C775.856 73.938 774.947 74.112 773.961 74.112C772.704 74.112 771.564 73.8607 770.539 73.358C769.514 72.836 768.702 72.0723 768.103 71.067C767.523 70.0423 767.233 68.805 767.233 67.355C767.233 65.2283 767.852 63.5367 769.089 62.28C770.346 61.004 772.066 60.366 774.251 60.366C776.88 60.366 778.746 61.2457 779.848 63.005C780.969 64.745 781.53 67.4227 781.53 71.038C781.53 73.532 781.317 75.5717 780.892 77.157C780.486 78.7423 779.771 79.941 778.746 80.753C777.721 81.565 776.3 81.971 774.483 81.971C772.414 81.971 770.819 81.4297 769.698 80.347C768.577 79.2643 767.948 77.9013 767.813 76.258H770.858ZM774.541 71.328C775.701 71.328 776.61 70.9703 777.267 70.255C777.944 69.5203 778.282 68.5537 778.282 67.355C778.282 66.021 777.924 64.9867 777.209 64.252C776.513 63.498 775.556 63.121 774.338 63.121C773.12 63.121 772.153 63.5077 771.438 64.281C770.742 65.035 770.394 66.0307 770.394 67.268C770.394 68.4473 770.732 69.4237 771.409 70.197C772.105 70.951 773.149 71.328 774.541 71.328ZM788.628 71.154C788.628 67.8093 789.189 65.1993 790.31 63.324C791.451 61.4293 793.404 60.482 796.168 60.482C798.933 60.482 800.876 61.4293 801.997 63.324C803.138 65.1993 803.708 67.8093 803.708 71.154C803.708 74.5373 803.138 77.186 801.997 79.1C800.876 80.9947 798.933 81.942 796.168 81.942C793.404 81.942 791.451 80.9947 790.31 79.1C789.189 77.186 788.628 74.5373 788.628 71.154ZM800.46 71.154C800.46 69.588 800.354 68.2637 800.141 67.181C799.948 66.0983 799.542 65.2187 798.923 64.542C798.305 63.846 797.386 63.498 796.168 63.498C794.95 63.498 794.032 63.846 793.413 64.542C792.795 65.2187 792.379 66.0983 792.166 67.181C791.973 68.2637 791.876 69.588 791.876 71.154C791.876 72.778 791.973 74.141 792.166 75.243C792.36 76.345 792.766 77.2343 793.384 77.911C794.022 78.5877 794.95 78.926 796.168 78.926C797.386 78.926 798.305 78.5877 798.923 77.911C799.561 77.2343 799.977 76.345 800.17 75.243C800.364 74.141 800.46 72.778 800.46 71.154ZM810.164 65.963C810.164 64.5517 810.57 63.4497 811.382 62.657C812.214 61.845 813.277 61.439 814.572 61.439C815.868 61.439 816.921 61.845 817.733 62.657C818.565 63.4497 818.98 64.5517 818.98 65.963C818.98 67.3743 818.565 68.486 817.733 69.298C816.921 70.11 815.868 70.516 814.572 70.516C813.277 70.516 812.214 70.11 811.382 69.298C810.57 68.486 810.164 67.3743 810.164 65.963ZM827.854 61.816L816.283 82H813.035L824.606 61.816H827.854ZM814.572 63.44C813.354 63.44 812.745 64.281 812.745 65.963C812.745 67.6643 813.354 68.515 814.572 68.515C815.152 68.515 815.597 68.312 815.906 67.906C816.235 67.4807 816.399 66.833 816.399 65.963C816.399 64.281 815.79 63.44 814.572 63.44ZM821.967 77.824C821.967 76.4127 822.373 75.3107 823.185 74.518C824.017 73.706 825.08 73.3 826.375 73.3C827.651 73.3 828.695 73.706 829.507 74.518C830.339 75.3107 830.754 76.4127 830.754 77.824C830.754 79.2353 830.339 80.347 829.507 81.159C828.695 81.971 827.651 82.377 826.375 82.377C825.08 82.377 824.017 81.971 823.185 81.159C822.373 80.347 821.967 79.2353 821.967 77.824ZM826.346 75.301C825.128 75.301 824.519 76.142 824.519 77.824C824.519 79.506 825.128 80.347 826.346 80.347C827.564 80.347 828.173 79.506 828.173 77.824C828.173 76.142 827.564 75.301 826.346 75.301Z" fill="#666666"/>
<path d="M1007.27 166.645C1006.69 165.311 1005.8 164.267 1004.6 163.513C1003.42 162.74 1002.03 162.353 1000.43 162.353C998.918 162.353 997.565 162.701 996.366 163.397C995.167 164.093 994.22 165.089 993.524 166.384C992.828 167.66 992.48 169.149 992.48 170.85C992.48 172.551 992.828 174.05 993.524 175.345C994.22 176.64 995.167 177.636 996.366 178.332C997.565 179.028 998.918 179.376 1000.43 179.376C1001.84 179.376 1003.1 179.076 1004.23 178.477C1005.37 177.858 1006.27 176.988 1006.95 175.867C1007.65 174.726 1008.04 173.402 1008.14 171.894H999.614V170.241H1010.29V171.72C1010.19 173.499 1009.71 175.113 1008.84 176.563C1007.97 177.994 1006.8 179.125 1005.33 179.956C1003.88 180.787 1002.24 181.203 1000.43 181.203C998.551 181.203 996.849 180.768 995.322 179.898C993.795 179.009 992.586 177.781 991.697 176.215C990.827 174.63 990.392 172.841 990.392 170.85C990.392 168.859 990.827 167.08 991.697 165.514C992.586 163.929 993.795 162.701 995.322 161.831C996.849 160.942 998.551 160.497 1000.43 160.497C1002.59 160.497 1004.49 161.038 1006.11 162.121C1007.73 163.204 1008.91 164.712 1009.65 166.645H1007.27ZM1019.51 160.729V181H1017.48V160.729H1019.51ZM1039.45 160.729V162.411H1033.83V181H1031.8V162.411H1026.14V160.729H1039.45ZM1061.19 160.729V181H1059.16V171.517H1048.17V181H1046.14V160.729H1048.17V169.835H1059.16V160.729H1061.19ZM1071.24 160.729V173.489C1071.24 175.5 1071.72 176.988 1072.66 177.955C1073.63 178.922 1074.95 179.405 1076.61 179.405C1078.27 179.405 1079.57 178.931 1080.49 177.984C1081.44 177.017 1081.92 175.519 1081.92 173.489V160.729H1083.95V173.46C1083.95 176.031 1083.26 177.965 1081.89 179.26C1080.53 180.555 1078.76 181.203 1076.58 181.203C1074.39 181.203 1072.62 180.555 1071.24 179.26C1069.89 177.965 1069.21 176.031 1069.21 173.46V160.729H1071.24ZM1101.44 170.531C1102.58 170.744 1103.54 171.324 1104.34 172.271C1105.13 173.218 1105.53 174.32 1105.53 175.577C1105.53 176.602 1105.26 177.53 1104.74 178.361C1104.24 179.173 1103.5 179.821 1102.51 180.304C1101.52 180.768 1100.34 181 1098.97 181H1091.95V160.729H1098.77C1100.82 160.729 1102.37 161.203 1103.44 162.15C1104.52 163.097 1105.06 164.325 1105.06 165.833C1105.06 167.09 1104.72 168.114 1104.05 168.907C1103.37 169.68 1102.5 170.222 1101.44 170.531ZM1093.98 169.69H1098.71C1100.08 169.69 1101.14 169.371 1101.87 168.733C1102.63 168.076 1103 167.177 1103 166.036C1103 164.915 1102.63 164.035 1101.87 163.397C1101.14 162.759 1100.05 162.44 1098.62 162.44H1093.98V169.69ZM1098.83 179.289C1100.3 179.289 1101.44 178.941 1102.25 178.245C1103.08 177.549 1103.5 176.592 1103.5 175.374C1103.5 174.156 1103.06 173.189 1102.19 172.474C1101.34 171.739 1100.19 171.372 1098.74 171.372H1093.98V179.289H1098.83Z" fill="#666666"/>
<path d="M1113 72.5C1113 112.541 1080.54 145 1040.5 145C1000.46 145 968 112.541 968 72.5C968 32.4594 1000.46 0 1040.5 0C1080.54 0 1113 32.4594 1113 72.5ZM975.975 72.5C975.975 108.136 1004.86 137.025 1040.5 137.025C1076.14 137.025 1105.02 108.136 1105.02 72.5C1105.02 36.8638 1076.14 7.975 1040.5 7.975C1004.86 7.975 975.975 36.8638 975.975 72.5Z" fill="#EEEEEE"/>
<path d="M1040.5 0C1059.14 2.22243e-07 1077.06 7.17702 1090.54 20.0412C1104.03 32.9054 1112.04 50.4685 1112.92 69.0848C1113.8 87.701 1107.47 105.94 1095.26 120.017C1083.04 134.093 1065.88 142.924 1047.32 144.678C1028.77 146.432 1010.25 140.973 995.616 129.435C980.98 117.897 971.349 101.166 968.723 82.7153C966.097 64.2643 970.678 45.5107 981.513 30.3475C992.349 15.1843 1008.61 4.77637 1026.91 1.28417L1028.41 9.11791C1012.12 12.226 997.646 21.4891 988.002 34.9843C978.358 48.4795 974.282 65.1702 976.619 81.5916C978.956 98.013 987.527 112.904 1000.55 123.173C1013.58 133.441 1030.06 138.3 1046.57 136.739C1063.09 135.178 1078.36 127.317 1089.23 114.79C1100.11 102.262 1105.73 86.0289 1104.95 69.4605C1104.17 52.892 1097.04 37.2608 1085.04 25.8117C1073.04 14.3625 1057.09 7.975 1040.5 7.975V0Z" fill="#FFB400"/>
<path d="M1012.86 76.258C1013.05 77.2247 1013.47 77.9593 1014.11 78.462C1014.74 78.9647 1015.6 79.216 1016.69 79.216C1018.06 79.216 1019.06 78.6747 1019.7 77.592C1020.34 76.5093 1020.66 74.663 1020.66 72.053C1020.2 72.7103 1019.54 73.2227 1018.69 73.59C1017.86 73.938 1016.95 74.112 1015.96 74.112C1014.7 74.112 1013.56 73.8607 1012.54 73.358C1011.51 72.836 1010.7 72.0723 1010.1 71.067C1009.52 70.0423 1009.23 68.805 1009.23 67.355C1009.23 65.2283 1009.85 63.5367 1011.09 62.28C1012.35 61.004 1014.07 60.366 1016.25 60.366C1018.88 60.366 1020.75 61.2457 1021.85 63.005C1022.97 64.745 1023.53 67.4227 1023.53 71.038C1023.53 73.532 1023.32 75.5717 1022.89 77.157C1022.49 78.7423 1021.77 79.941 1020.75 80.753C1019.72 81.565 1018.3 81.971 1016.48 81.971C1014.41 81.971 1012.82 81.4297 1011.7 80.347C1010.58 79.2643 1009.95 77.9013 1009.81 76.258H1012.86ZM1016.54 71.328C1017.7 71.328 1018.61 70.9703 1019.27 70.255C1019.94 69.5203 1020.28 68.5537 1020.28 67.355C1020.28 66.021 1019.92 64.9867 1019.21 64.252C1018.51 63.498 1017.56 63.121 1016.34 63.121C1015.12 63.121 1014.15 63.5077 1013.44 64.281C1012.74 65.035 1012.39 66.0307 1012.39 67.268C1012.39 68.4473 1012.73 69.4237 1013.41 70.197C1014.11 70.951 1015.15 71.328 1016.54 71.328ZM1044.03 63.411L1035.96 82H1032.63L1040.78 63.759H1030.05V60.946H1044.03V63.411ZM1049.81 65.963C1049.81 64.5517 1050.22 63.4497 1051.03 62.657C1051.86 61.845 1052.93 61.439 1054.22 61.439C1055.52 61.439 1056.57 61.845 1057.38 62.657C1058.21 63.4497 1058.63 64.5517 1058.63 65.963C1058.63 67.3743 1058.21 68.486 1057.38 69.298C1056.57 70.11 1055.52 70.516 1054.22 70.516C1052.93 70.516 1051.86 70.11 1051.03 69.298C1050.22 68.486 1049.81 67.3743 1049.81 65.963ZM1067.5 61.816L1055.93 82H1052.68L1064.26 61.816H1067.5ZM1054.22 63.44C1053 63.44 1052.39 64.281 1052.39 65.963C1052.39 67.6643 1053 68.515 1054.22 68.515C1054.8 68.515 1055.25 68.312 1055.56 67.906C1055.88 67.4807 1056.05 66.833 1056.05 65.963C1056.05 64.281 1055.44 63.44 1054.22 63.44ZM1061.62 77.824C1061.62 76.4127 1062.02 75.3107 1062.83 74.518C1063.67 73.706 1064.73 73.3 1066.02 73.3C1067.3 73.3 1068.34 73.706 1069.16 74.518C1069.99 75.3107 1070.4 76.4127 1070.4 77.824C1070.4 79.2353 1069.99 80.347 1069.16 81.159C1068.34 81.971 1067.3 82.377 1066.02 82.377C1064.73 82.377 1063.67 81.971 1062.83 81.159C1062.02 80.347 1061.62 79.2353 1061.62 77.824ZM1066 75.301C1064.78 75.301 1064.17 76.142 1064.17 77.824C1064.17 79.506 1064.78 80.347 1066 80.347C1067.21 80.347 1067.82 79.506 1067.82 77.824C1067.82 76.142 1067.21 75.301 1066 75.301Z" fill="#666666"/>
</svg>
